<svg width="70" height="80" viewBox="0 0 70 80" fill="none" xmlns="http://www.w3.org/2000/svg">
<path fill-rule="evenodd" clip-rule="evenodd" d="M37.5362 0H32.4638V1.02564H30.4348V2.05128H29.4203V3.07692H28.4058V5.12821H27.3913V10.2564H28.4058V12.3077H29.4203V13.3333H30.4348V14.359H31.4493V20.5128H30.4348V21.5385H29.4203V22.5641H16.2319V21.5385H15.2174V20.5128H14.2029V19.4872H10.1449V20.5128H9.13043V21.5385H8.11594V22.5641H7.10145V26.6667H8.11594V27.6923H9.13043V28.718H10.1449V29.7436H14.2029V28.718H15.2174V27.6923H29.4203V28.718H30.4348V31.7949H31.4493V63.5897H30.4348V66.6667H28.4058V67.6923H27.3913V68.7179H9.13043V67.6923H8.11594V66.6667H7.10145V64.6154H8.11594V63.5897H9.13043V62.5641H8.11594V60.5128H7.10145V58.4615H6.08696V56.4103H5.07246V54.359H4.05797V56.4103H3.04348V58.4615H2.02899V60.5128H1.01449V62.5641H0V63.5897H1.01449V64.6154H2.02899V68.7179H3.04348V70.7692H4.05797V71.7949H5.07246V72.8205H7.10145V73.8462H9.13043V74.8718H10.1449H11.1594V75.8974H28.4058V76.9231H30.4348V77.9487H32.4638V78.9744H33.4783V80H36.5217V78.9744H37.5362V77.9487H39.5652V76.9231H41.5942V75.8974H58.8406V74.8718H60.8696V73.8462H62.8986V72.8205H64.9275V71.7949H65.942V70.7692H66.9565V68.7179H67.971V64.6154H68.9855V63.5897H70V62.5641H68.9855V60.5128H67.971V58.4615H66.9565V56.4103H65.942V54.359H64.9275V56.4103H63.913V58.4615H62.8986V60.5128H61.8841V62.5641H60.8696V63.5897H61.8841V64.6154H62.8986V66.6667H61.8841V67.6923H60.8696V68.7179H42.6087V67.6923H41.5942V66.6667H39.5652V63.5897H38.5507V31.7949H39.5652V28.718H40.5797V27.6923H54.7826V28.718H55.7971V29.7436H59.8551V28.718H60.8696V27.6923H61.8841V26.6667H62.8986V22.5641H61.8841V21.5385H60.8696V20.5128H59.8551V19.4872H55.7971V20.5128H54.7826V21.5385H53.7681V22.5641H40.5797V21.5385H39.5652V20.5128H38.5507V14.359H39.5652V13.3333H40.5797V12.3077H41.5942V10.2564H42.6087V5.12821H41.5942V3.07692H40.5797V2.05128H39.5652V1.02564H37.5362V0ZM24.3478 31.7949H20.2899V33.8462H21.3044V34.8718H22.3188V47.1795H20.2899V48.2051H19.2754V49.2308H18.2609V50.2564H17.2464V51.2821H11.1594V52.3077H12.1739V54.359H13.1884V55.3846H18.2609V54.359H19.2754V52.3077H20.2899V51.2821H21.3044V50.2564H22.3188V57.4359H21.3044V60.5128H22.3188V61.5385H25.3623V34.8718H26.3768V32.8205H24.3478V31.7949ZM41.5942 47.1795H40.5797V49.2308H41.5942V50.2564H50.7246V49.2308H55.7971V58.4615H53.7681V59.4872H54.7826V60.5128H55.7971V61.5385H56.8116V60.5128H57.8261V59.4872H58.8406V49.2308H64.9275V48.2051H66.9565V47.1795H64.9275V46.1539H63.913V47.1795H58.8406V45.1282H57.8261V44.1026H55.7971V45.1282H54.7826V46.1539H55.7971V47.1795H45.6522V48.2051H41.5942V47.1795ZM45.6522 51.282V52.3077H46.6667V53.3333H48.6957V54.359H49.7101V55.3846H50.7246V56.4102H53.7681V53.3333H51.7391V52.3077H49.7101V51.282H45.6522ZM21.3043 43.0769V42.0513H20.2899V41.0256H19.2754V40H18.2609V37.9487H13.1884V40H15.2174V41.0256H16.2319V42.0513H17.2464V43.0769H21.3043ZM48.6957 46.1538H45.6522V45.1282H44.6377V43.0769H43.6232V41.0256H42.6087V40H45.6522V41.0256H46.6667V42.0513H47.6812V43.0769H48.6957V46.1538ZM49.7101 38.9744H53.7681V40H54.7826V41.0256H55.7971V43.0769H54.7826V44.1026H51.7391V42.0513H50.7246V40H49.7101V38.9744ZM58.8406 37.9487V36.9231H59.8551V35.8974H61.8841V36.9231H62.8986V37.9487H63.913V38.9744H64.9275V41.0256H62.8986V42.0513H61.8841V43.0769H56.8116V42.0513H57.8261V41.0256H58.8406V40H59.8551V37.9487H58.8406ZM41.5942 37.9487H44.6377V36.9231H46.6667V35.8974H50.7246V34.8718H52.7536V33.8462H53.7681V31.7949H57.8261V32.8205H58.8406V33.8462H60.8696V34.8718H58.8406V35.8974H56.8116V36.9231H54.7826V37.9487H48.6957V38.9744H41.5942V37.9487Z" fill="#1F1F1F"/>
</svg>
