<svg width="35" height="40" viewBox="0 0 35 40" fill="none" xmlns="http://www.w3.org/2000/svg">
<path fill-rule="evenodd" clip-rule="evenodd" d="M18.7681 0H16.2319V0.51282H15.2174V1.02564H14.7101V1.53846H14.2029V2.5641H13.6957V5.1282H14.2029V6.15385H14.7101V6.66667H15.2174V7.17949H15.7246V10.2564H15.2174V10.7692H14.7101V11.2821H8.11594V10.7692H7.6087V10.2564H7.10145V9.74359H5.07246V10.2564H4.56522V10.7692H4.05797V11.2821H3.55072V13.3333H4.05797V13.8462H4.56522V14.359H5.07246V14.8718H7.10145V14.359H7.6087V13.8462H14.7101V14.359H15.2174V15.8974H15.7246V31.7949H15.2174V33.3333H14.2029V33.8462H13.6957V34.359H4.56522V33.8462H4.05797V33.3333H3.55072V32.3077H4.05797V31.7949H4.56522V31.282H4.05797V30.2564H3.55072V29.2308H3.04348V28.2051H2.53623V27.1795H2.02899V28.2051H1.52174V29.2308H1.01449V30.2564H0.507246V31.282H0V31.7949H0.507246V32.3077H1.01449V34.359H1.52174V35.3846H2.02899V35.8974H2.53623V36.4103H3.55072V36.9231H4.56522V37.4359H5.07246H5.57971V37.9487H14.2029V38.4615H15.2174V38.9744H16.2319V39.4872H16.7391V40H18.2609V39.4872H18.7681V38.9744H19.7826V38.4615H20.7971V37.9487H29.4203V37.4359H30.4348V36.9231H31.4493V36.4103H32.4638V35.8974H32.971V35.3846H33.4783V34.359H33.9855V32.3077H34.4928V31.7949H35V31.282H34.4928V30.2564H33.9855V29.2308H33.4783V28.2051H32.971V27.1795H32.4638V28.2051H31.9565V29.2308H31.4493V30.2564H30.942V31.282H30.4348V31.7949H30.942V32.3077H31.4493V33.3333H30.942V33.8462H30.4348V34.359H21.3043V33.8462H20.7971V33.3333H19.7826V31.7949H19.2754V15.8974H19.7826V14.359H20.2899V13.8462H27.3913V14.359H27.8986V14.8718H29.9275V14.359H30.4348V13.8462H30.942V13.3333H31.4493V11.2821H30.942V10.7692H30.4348V10.2564H29.9275V9.74359H27.8986V10.2564H27.3913V10.7692H26.8841V11.2821H20.2899V10.7692H19.7826V10.2564H19.2754V7.17949H19.7826V6.66667H20.2899V6.15385H20.7971V5.1282H21.3043V2.5641H20.7971V1.53846H20.2899V1.02564H19.7826V0.51282H18.7681V0ZM12.1739 15.8974H10.1449V16.9231H10.6522V17.4359H11.1594V23.5897H10.1449V24.1026H9.63768V24.6154H9.13044V25.1282H8.62319V25.641H5.57971V26.1538H6.08696V27.1795H6.5942V27.6923H9.13044V27.1795H9.63768V26.1538H10.1449V25.641H10.6522V25.1282H11.1594V28.7179H10.6522V30.2564H11.1594V30.7692H12.6812V17.4359H13.1884V16.4103H12.1739V15.8974ZM20.2899 23.5897V24.6154H20.7971V25.1282H25.3623V24.6154H27.8986V29.2308H26.8841V29.7436H27.3913V30.2564H27.8986V30.7692H28.4058V30.2564H28.913V29.7436H29.4203V24.6154H32.4638V24.1026H33.4783V23.5897H32.4638V23.0769H31.9565V23.5897H29.4203V22.5641H28.913V22.0513H27.8986V22.5641H27.3913V23.0769H27.8986V23.5897H22.8261V24.1026H20.7971V23.5897H20.2899ZM24.855 25.641H22.826V26.1538H23.3333V26.6667H24.3478V27.1795H24.855V27.6923H25.3623V28.2051H26.884V26.6667H25.8695V26.1538H24.855V25.641ZM10.6522 21.5385V21.0256H10.145V20.5128H9.63772V20H9.13047V18.9744H6.59424V20H7.60873V20.5128H8.11598V21.0256H8.62322V21.5385H10.6522ZM24.3478 23.0769H22.8261V22.5641H22.3188V21.5385H21.8116V20.5128H21.3043V20H22.8261V20.5128H23.3333V21.0256H23.8406V21.5385H24.3478V23.0769ZM24.8551 19.4872H26.8841V20H27.3913V20.5128H27.8986V21.5385H27.3913V22.0513H25.8696V21.0256H25.3623V20H24.8551V19.4872ZM29.4203 18.9744V18.4615H29.9275V17.9487H30.942V18.4615H31.4492V18.9744H31.9565V19.4872H32.4637V20.5128H31.4492V21.0256H30.942V21.5385H28.4058V21.0256H28.913V20.5128H29.4203V20H29.9275V18.9744H29.4203ZM20.7971 18.9744H22.3189V18.4615H23.3334V17.9487H25.3623V17.4359H26.3768V16.9231H26.8841V15.8974H28.9131V16.4103H29.4203V16.9231H30.4348V17.4359H29.4203V17.9487H28.4058V18.4615H27.3913V18.9744H24.3478V19.4872H20.7971V18.9744Z" fill="white"/>
</svg>
