<svg width="80" height="80" viewBox="0 0 80 80" fill="none" xmlns="http://www.w3.org/2000/svg">
<circle cx="40" cy="40" r="40" fill="#1F1F1F"/>
<path fill-rule="evenodd" clip-rule="evenodd" d="M41.7836 10.7693H38.2162V11.4793H36.7892V12.1894H36.0757V12.8995H35.3622V14.3196H34.6487V17.8699H35.3622V19.29H36.0757V20.0001H36.7892V20.7101H37.5027V24.9705H36.7892V25.6805H36.0757V26.3906H26.8004V25.6805H26.0869V24.9705H25.3734V24.2604H22.5194V24.9705H21.8059V25.6805H21.0924V26.3906H20.3789V29.2308H21.0924V29.9409H21.8059V30.6509H22.5194V31.361H25.3734V30.6509H26.0869V29.9409H36.0757V30.6509H36.7892V32.7811H37.5027V54.793H36.7892V56.9231H35.3622V57.6332H34.6487V58.3433H21.8059V57.6332H21.0924V56.9231H20.3789V55.503H21.0924V54.793H21.8059V54.0829H21.0924V52.6628H20.3789V51.2427H19.6655V49.8225H18.952V48.4024H18.2385V49.8225H17.525V51.2427H16.8115V52.6628H16.098V54.0829H15.3845V54.793H16.098V55.503H16.8115V58.3433H17.525V59.7634H18.2385V60.4734H18.952V61.1835H20.3789V61.8935H21.8059V62.6036H22.5194H23.2329V63.3137H35.3622V64.0237H36.7892V64.7338H38.2162V65.4438H38.9297V66.1539H41.0701V65.4438H41.7836V64.7338H43.2106V64.0237H44.6376V63.3137H56.7669V62.6036H58.1939V61.8935H59.6209V61.1835H61.0478V60.4734H61.7613V59.7634H62.4748V58.3433H63.1883V55.503H63.9018V54.793H64.6153V54.0829H63.9018V52.6628H63.1883V51.2427H62.4748V49.8225H61.7613V48.4024H61.0478V49.8225H60.3344V51.2427H59.6209V52.6628H58.9074V54.0829H58.1939V54.793H58.9074V55.503H59.6209V56.9231H58.9074V57.6332H58.1939V58.3433H45.3511V57.6332H44.6376V56.9231H43.2106V54.793H42.4971V32.7811H43.2106V30.6509H43.9241V29.9409H53.9129V30.6509H54.6264V31.361H57.4804V30.6509H58.1939V29.9409H58.9074V29.2308H59.6209V26.3906H58.9074V25.6805H58.1939V24.9705H57.4804V24.2604H54.6264V24.9705H53.9129V25.6805H53.1995V26.3906H43.9241V25.6805H43.2106V24.9705H42.4971V20.7101H43.2106V20.0001H43.9241V19.29H44.6376V17.8699H45.3511V14.3196H44.6376V12.8995H43.9241V12.1894H43.2106V11.4793H41.7836V10.7693ZM32.5082 32.7811H29.6543V34.2012H30.3678V34.9113H31.0813V43.432H29.6543V44.1421H28.9408V44.8521H28.2273V45.5622H27.5138V46.2722H23.2329V46.9823H23.9464V48.4024H24.6599V49.1125H28.2273V48.4024H28.9408V46.9823H29.6543V46.2722H30.3678V45.5622H31.0813V50.5326H30.3678V52.6628H31.0813V53.3728H33.2217V34.9113H33.9352V33.4912H32.5082V32.7811ZM43.9241 43.432V44.8522H44.6376V45.5622H51.059V44.8522H54.6265V51.2427H53.1995V51.9528H53.913V52.6628H54.6265V53.3729H55.34V52.6628H56.0535V51.9528H56.7669V44.8522H61.0479V44.1421H62.4749V43.432H61.0479V42.722H60.3344V43.432H56.7669V42.0119H56.0535V41.3019H54.6265V42.0119H53.913V42.722H54.6265V43.432H47.4916V44.1421H44.6376V43.432H43.9241ZM50.3455 46.2722H47.4916V46.9823H48.2051V47.6923H49.632V48.4024H50.3455V49.1125H51.059V49.8225H53.1995V47.6923H51.7725V46.9823H50.3455V46.2722ZM30.3678 40.5917V39.8817H29.6543V39.1716H28.9408V38.4616H28.2274V37.0414H24.6599V38.4616H26.0869V39.1716H26.8004V39.8817H27.5139V40.5917H30.3678ZM49.632 42.7219H47.4915V42.0119H46.778V40.5918H46.0645V39.1716H45.351V38.4616H47.4915V39.1716H48.205V39.8817H48.9185V40.5918H49.632V42.7219ZM50.3455 37.7516H53.1994V38.4616H53.9129V39.1717H54.6264V40.5918H53.9129V41.3019H51.7724V39.8817H51.0589V38.4616H50.3455V37.7516ZM56.7669 37.0415V36.3314H57.4804V35.6214H58.9074V36.3314H59.6209V37.0415H60.3344V37.7515H61.0478V39.1717H59.6209V39.8817H58.9074V40.5918H55.3399V39.8817H56.0534V39.1717H56.7669V38.4616H57.4804V37.0415H56.7669ZM44.6376 37.0415H46.7781V36.3314H48.2051V35.6213H51.059V34.9113H52.486V34.2012H53.1995V32.7811H56.0534V33.4912H56.7669V34.2012H58.1939V34.9113H56.7669V35.6213H55.34V36.3314H53.913V37.0415H49.632V37.7515H44.6376V37.0415Z" fill="#4298B3"/>
</svg>
