<svg width="250" height="270" viewBox="0 0 250 270" fill="none" xmlns="http://www.w3.org/2000/svg">
<path fill-rule="evenodd" clip-rule="evenodd" d="M134.058 0H115.942V3.46154H108.696V6.92308H105.072V10.3846H101.449V17.3077H97.8261V34.6154H101.449V41.5385H105.072V45H108.696V48.4615H112.319V69.2308H108.696V72.6923H105.072V76.1539H57.971V72.6923H54.3478V69.2308H50.7246V65.7692H36.2319V69.2308H32.6087V72.6923H28.9855V76.1539H25.3623V90H28.9855V93.4615H32.6087V96.9231H36.2319V100.385H50.7246V96.9231H54.3478V93.4615H105.072V96.9231H108.696V107.308H112.319V214.615H108.696V225H101.449V228.462H97.8261V231.923H32.6087V228.462H28.9855V225H25.3623V218.077H28.9855V214.615H32.6087V211.154H28.9855V204.231H25.3623V197.308H21.7391V190.385H18.1159V183.462H14.4928V190.385H10.8696V197.308H7.24638V204.231H3.62319V211.154H0V214.615H3.62319V218.077H7.24638V231.923H10.8696V238.846H14.4928V242.308H18.1159V245.769H25.3623V249.231H32.6087V252.692H36.2319H39.8551V256.154H101.449V259.615H108.696V263.077H115.942V266.538H119.565V270H130.435V266.538H134.058V263.077H141.304V259.615H148.551V256.154H210.145V252.692H217.391V249.231H224.638V245.769H231.884V242.308H235.507V238.846H239.13V231.923H242.754V218.077H246.377V214.615H250V211.154H246.377V204.231H242.754V197.308H239.13V190.385H235.507V183.462H231.884V190.385H228.261V197.308H224.638V204.231H221.014V211.154H217.391V214.615H221.014V218.077H224.638V225H221.014V228.462H217.391V231.923H152.174V228.462H148.551V225H141.304V214.615H137.681V107.308H141.304V96.9231H144.928V93.4615H195.652V96.9231H199.275V100.385H213.768V96.9231H217.391V93.4615H221.014V90H224.638V76.1539H221.014V72.6923H217.391V69.2308H213.768V65.7692H199.275V69.2308H195.652V72.6923H192.029V76.1539H144.928V72.6923H141.304V69.2308H137.681V48.4615H141.304V45H144.928V41.5385H148.551V34.6154H152.174V17.3077H148.551V10.3846H144.928V6.92308H141.304V3.46154H134.058V0ZM86.9568 107.307H72.4641V114.231H76.0872V117.692H79.7104V159.231H72.4641V162.692H68.8409V166.154H65.2177V169.615H61.5945V173.077H39.8553V176.538H43.4785V183.461H47.1017V186.923H65.2177V183.461H68.8409V176.538H72.4641V173.077H76.0872V169.615H79.7104V193.846H76.0872V204.231H79.7104V207.692H90.58V117.692H94.2032V110.769H86.9568V107.307ZM144.927 159.231V166.154H148.551V169.616H181.159V166.154H199.275V197.308H192.029V200.77H195.652V204.231H199.275V207.693H202.898V204.231H206.522V200.77H210.145V166.154H231.884V162.693H239.13V159.231H231.884V155.77H228.261V159.231H210.145V152.308H206.522V148.847H199.275V152.308H195.652V155.77H199.275V159.231H163.043V162.693H148.551V159.231H144.927ZM177.536 173.077H163.044V176.538H166.667V180H173.913V183.461H177.536V186.923H181.159V190.384H192.029V180H184.783V176.538H177.536V173.077ZM76.0869 145.385V141.923H72.4637V138.462H68.8406V135H65.2174V128.077H47.1014V135H54.3478V138.462H57.971V141.923H61.5942V145.385H76.0869ZM173.913 155.769H163.043V152.308H159.42V145.385H155.797V138.462H152.174V135H163.043V138.462H166.667V141.923H170.29V145.385H173.913V155.769ZM177.536 131.538H192.029V135H195.652V138.461H199.275V145.384H195.652V148.846H184.782V141.923H181.159V135H177.536V131.538ZM210.145 128.077V124.616H213.768V121.154H221.014V124.616H224.638V128.077H228.261V131.539H231.884V138.462H224.638V141.923H221.014V145.385H202.899V141.923H206.522V138.462H210.145V135H213.768V128.077H210.145ZM148.551 128.077H159.421V124.615H166.667V121.154H181.16V117.692H188.406V114.231H192.029V107.307H206.522V110.769H210.145V114.231H217.392V117.692H210.145V121.154H202.899V124.615H195.652V128.077H173.913V131.538H148.551V128.077Z" fill="#1F1F1F"/>
</svg>
