<svg width="35" height="30" viewBox="0 0 35 30" fill="none" xmlns="http://www.w3.org/2000/svg">
<path d="M7.83437 30H0.578125V9.97054H7.83437V30ZM4.20234 7.23833C1.88203 7.23833 0 5.59097 0 3.60209C1.66078e-08 2.64676 0.442746 1.73055 1.23084 1.05503C2.01893 0.379505 3.08781 0 4.20234 0C5.31687 0 6.38576 0.379505 7.17385 1.05503C7.96194 1.73055 8.40469 2.64676 8.40469 3.60209C8.40469 5.59097 6.52187 7.23833 4.20234 7.23833ZM34.9922 30H27.7516V20.2498C27.7516 17.9261 27.6969 14.9461 23.9789 14.9461C20.2062 14.9461 19.6281 17.4707 19.6281 20.0824V30H12.3797V9.97054H19.3391V12.7027H19.4406C20.4094 11.129 22.7758 9.46829 26.3062 9.46829C33.65 9.46829 35 13.6135 35 18.9975V30H34.9922Z" fill="#1F1F1F"/>
</svg>
