<svg width="35" height="30" viewBox="0 0 35 30" fill="none" xmlns="http://www.w3.org/2000/svg">
<path d="M31.4024 7.47654C31.4246 7.80464 31.4246 8.13283 31.4246 8.46093C31.4246 18.4687 24.207 30 11.0153 30C6.95115 30 3.17578 28.7578 0 26.6016C0.577434 26.6719 1.13258 26.6953 1.73223 26.6953C5.08562 26.6953 8.1726 25.5 10.6377 23.461C7.48415 23.3906 4.84137 21.211 3.93082 18.2109C4.37502 18.2812 4.81915 18.3281 5.28557 18.3281C5.92958 18.3281 6.57367 18.2343 7.17325 18.0703C3.88645 17.3671 1.42127 14.3203 1.42127 10.6406V10.5469C2.37618 11.1094 3.48668 11.461 4.66363 11.5078C2.73151 10.1484 1.4657 7.82809 1.4657 5.20307C1.4657 3.79685 1.82096 2.50779 2.44283 1.38278C5.97395 5.97652 11.2817 8.97647 17.2335 9.30466C17.1224 8.74215 17.0558 8.15627 17.0558 7.57032C17.0558 3.3984 20.2538 0 24.229 0C26.2944 0 28.1599 0.91406 29.4702 2.39062C31.0913 2.06252 32.6459 1.42967 34.0229 0.562504C33.4898 2.32036 32.3572 3.79692 30.8693 4.73435C32.3129 4.57037 33.712 4.1484 35 3.56253C34.023 5.06246 32.8015 6.39835 31.4024 7.47654Z" fill="#1F1F1F"/>
</svg>
